<svg xmlns="http://www.w3.org/2000/svg" width="800" height="600">
  <rect width="100%" height="100%" fill="#0a0a0a"/>
  <g stroke="#ef4444" stroke-width="4" fill="none">
    <path d="M0 300 L 40 300 45 200 50 300 55 200 60 300 65 200 70 300 75 200 80 300 85 200 90 300 95 200 100 300 120 300 125 200 130 300 135 200 140 300 145 200 150 300 160 300 165 200 170 300 175 200 180 300 185 200 190 300 195 200 200 300 800 300"/>
  </g>
  <text x="50%" y="88%" dominant-baseline="middle" text-anchor="middle" font-size="36" fill="#fecaca" font-family="Arial, Helvetica, sans-serif">1D 004</text>
</svg>
